<svg height="512pt" viewBox="0 0 512 512.00082" width="512pt" xmlns="http://www.w3.org/2000/svg"><g fill-rule="evenodd"><path d="m126 142.003906 4.699219 79.863282c20.21875-1.171876 38.425781-9.851563 51.867187-23.296876zm0 0" fill="#ff916c"/><path d="m126 142.003906 56.566406 56.566406c14.476563-14.476562 23.433594-34.476562 23.433594-56.566406zm0 0" fill="#e9bc82"/><path d="m126 142.003906h80c0-22.09375-8.957031-42.09375-23.433594-56.570312zm0 0" fill="#ff916c"/><path d="m126 142.003906 56.566406-56.570312c-14.476562-14.476563-34.476562-23.429688-56.566406-23.429688zm0 0" fill="#e9bc82"/><path d="m295.488281 75.875-4.429687 66.128906h30.066406l3.050781-45.539062 141.820313-58.746094-11.476563-27.714844zm0 0" fill="#55cd8e"/><path d="m321.125 142.003906h-30.066406l-9.515625 142.066406c10.3125.679688 20.378906 1.328126 29.941406 1.84375zm0 0" fill="#55cd8e"/><path d="m365.996094 482 1.449218-24.597656 7.644532-129.941406 2.464844-41.910157c-1.304688-.078125-2.625-.15625-3.945313-.234375-13.542969 2.464844-35.957031 2.015625-62.125.597656-9.5625-.515624-19.628906-1.164062-29.941406-1.84375-17.234375-1.140624-35.160157-2.367187-52.621094-3.25-8.320313.765626-15.773437 1.925782-22.046875 3.605469l2.59375 44.058594 9.03125 153.515625c.644531 10.929688 8.921875 19.917969 19.847656 20h107.800782c10.925781-.082031 19.207031-9.070312 19.847656-20zm0 0" fill="#ffbd50"/></g><path d="m206.734375 338.488281h.234375c5.523438 0 10-4.476562 10-10 0-5.523437-4.476562-10-10-10h-.234375c-5.523437 0-10 4.476563-10 10 0 5.519531 4.476563 10 10 10zm0 0"/><path d="m297.679688 447.402344h-.234376c-5.523437 0-10 4.476562-10 10 0 5.523437 4.476563 10 10 10h.234376c5.523437 0 10-4.476563 10-10 0-5.519532-4.476563-10-10-10zm0 0"/><path d="m268.910156 337.460938h13.996094c5.523438 0 10-4.480469 10-10 0-5.523438-4.476562-10-10-10h-13.996094c-5.523437 0-10 4.476562-10 10 0 5.519531 4.476563 10 10 10zm0 0"/><path d="m230.910156 360.960938h-25c-5.523437 0-10 4.476562-10 9.996093 0 5.523438 4.476563 10 10 10h25c5.519532 0 10-4.476562 10-10 0-5.519531-4.480468-9.996093-10-9.996093zm0 0"/><path d="m332.40625 370.957031c0-5.519531-4.476562-9.996093-10-9.996093h-14c-5.519531 0-10 4.476562-10 9.996093 0 5.523438 4.480469 10 10 10h14c5.523438 0 10-4.476562 10-10zm0 0"/><path d="m301.15625 414.957031c0-5.519531-4.476562-10-10-10h-31c-5.519531 0-10 4.480469-10 10 0 5.523438 4.476562 10 10 10h31c5.523438 0 10-4.476562 10-10zm0 0"/><path d="m206.910156 414.957031c0-5.519531-4.480468-10-10-10h-14c-5.523437 0-10 4.480469-10 10 0 5.523438 4.476563 10 10 10h14c5.523438 0 10-4.476562 10-10zm0 0"/><path d="m227.410156 447.402344h-14c-5.523437 0-10 4.476562-10 10 0 5.523437 4.476563 10 10 10h14c5.519532 0 10-4.476563 10-10 0-5.523438-4.480468-10-10-10zm0 0"/><path d="m473.03125 492h-99.035156c1.097656-2.945312 1.789062-6.105469 1.984375-9.410156l11.632812-197.734375c0-.011719 0-.027344 0-.039063l8.367188-142.226562c.160156-2.75-.816407-5.445313-2.707031-7.449219-1.890626-2.003906-4.523438-3.140625-7.273438-3.140625h-54.183594l1.921875-28.675781 136.085938-56.367188c2.449219-1.015625 4.398437-2.960937 5.414062-5.414062 1.011719-2.449219 1.011719-5.203125 0-7.652344l-11.480469-27.714844c-2.113281-5.105469-7.964843-7.523437-13.066406-5.410156l-159.027344 65.871094c-3.515624 1.453125-5.898437 4.777343-6.152343 8.570312l-3.804688 56.796875h-66.265625c-2.273437-20.464844-11.433594-38.875-25.101562-52.863281-.21875-.269531-.453125-.527344-.699219-.777344-.25-.25-.511719-.480469-.777344-.699219-16.234375-15.867187-38.425781-25.660156-62.863281-25.660156s-46.628906 9.796875-62.863281 25.660156c-.265625.21875-.527344.449219-.777344.699219-.246094.25-.480469.511719-.699219.777344-15.863281 16.234375-25.660156 38.425781-25.660156 62.863281s9.796875 46.628906 25.664062 62.863282c.214844.269531.449219.527343.695313.777343.25.246094.507813.480469.777344.695313 15.179687 14.835937 35.566406 24.363281 58.132812 25.539062.003907.035156-.003906-.035156 0 0l14.75 250.710938c.191407 3.304687.886719 6.464844 1.984375 9.410156h-99.035156c-5.523438 0-10 4.476562-10 10s4.476562 10 10 10h434.0625c5.523438 0 10-4.476562 10-10s-4.476562-10-10-10zm-97.636719-339.996094-7.296875 124.039063c-10.917968 1.367187-27.316406 1.203125-45.953125.375l8.335938-124.414063zm-83.207031 122.734375 8.222656-122.734375h10.023438l-8.265625 123.355469c-3.296875-.199219-6.632813-.40625-9.980469-.621094zm12.863281-192 144.054688-59.667969 3.828125 9.234376-132.582032 54.917968c-3.515624 1.457032-5.898437 4.777344-6.152343 8.570313l-2.425781 36.210937h-10.019532zm-32.820312 190.691407c-47.644531-3.15625-96.296875-6.21875-128.550781-1.121094l-2.445313-41.601563c18.363281-3.144531 34.84375-11.871093 47.628906-24.367187.269531-.214844.527344-.449219.773438-.699219.25-.246094.480469-.507813.699219-.773437 13.671874-13.988282 22.832031-32.402344 25.105468-52.863282h64.925782zm-202.273438-89.527344c-6.863281-9.160156-11.527343-20.058594-13.230469-31.898438h45.132813zm0-83.796875 31.898438 31.898437h-45.128907c1.703126-11.84375 6.367188-22.738281 13.230469-31.898437zm112.082031 83.796875-31.898437-31.898438h45.132813c-1.703126 11.839844-6.367188 22.734375-13.234376 31.898438zm-14.140624 14.140625c-8.105469 6.078125-17.570313 10.4375-27.847657 12.542969l-2.523437-42.914063zm-31.898438-125.3125c11.839844 1.699219 22.734375 6.363281 31.898438 13.230469l-31.898438 31.898437zm-20 45.128906-31.898438-31.898437c9.160157-6.867188 20.058594-11.53125 31.898438-13.230469zm34.140625 14.144531 31.898437-31.898437c6.867188 9.160156 11.53125 20.058593 13.234376 31.898437zm-66.039063 66.039063 33.222657-33.222657 2.761719 46.914063c-13.421876-1.128906-25.777344-6.042969-35.984376-13.691406zm81.898438 293.957031c-5.355469 0-9.660156-4.550781-10.019531-10.585938l-8.40625-142.929687h30.429687c5.523438 0 10-4.476563 10-10s-4.476562-10-10-10h-31.605468l-1.535157-26.101563c30.503907-5.328124 82.703125-1.871093 129.234375 1.214844 2.277344.152344 4.527344.300782 6.773438.449219h.003906.003906c24.648438 1.625 47.265625 3.023437 65.625 3.023437 7.582032 0 14.429688-.238281 20.402344-.796874l-1.246094 21.183593h-18.25c-5.523437 0-10 4.476563-10 10 0 5.523438 4.476563 10 10 10h17.074219l-6.46875 109.941407h-31.605469c-5.523437 0-10 4.480468-10 10 0 5.523437 4.476563 10 10 10h30.429688l-.824219 14.015624c-.355469 6.035157-4.660156 10.585938-10.019531 10.585938zm0 0"/><path d="m10.238281 492h-.238281c-5.523438 0-10 4.476562-10 10s4.476562 10 10 10h.238281c5.519531 0 9.996094-4.476562 9.996094-10s-4.476563-10-9.996094-10zm0 0"/><path d="m501.996094 492h-.234375c-5.523438 0-10 4.476562-10 10s4.476562 10 10 10h.234375c5.523437 0 10-4.476562 10-10s-4.476563-10-10-10zm0 0"/></svg>