<svg height="511pt" viewBox="0 -8 511.99857 511" width="511pt" xmlns="http://www.w3.org/2000/svg"><path d="m373.136719 382.949219c83.566406-83.570313 159.304687-214.980469 115.621093-305.667969-39.617187-18.023438-88.8125-10.617188-131.113281 31.683594-5.484375 5.488281-10.421875 11.3125-14.8125 17.410156-28.570312 39.6875-73.085937 64.539062-121.59375 70.726562-37.347656 4.765626-73.460937 21.484376-102.144531 50.167969-58.785156 58.785157-67.332031 148.765625-25.671875 216.636719 70.101563 41.824219 171.761719 26.992188 279.714844-80.957031zm0 0" fill="#ffd29f"/><path d="m135.019531 259.882812c22.335938-22.339843 50.65625-36.25 81.894531-40.238281 56.632813-7.21875 107.507813-36.914062 139.582032-81.46875 3.363281-4.671875 7.152344-9.121093 11.261718-13.230469 19.75-19.75 41.734376-30.4375 63.578126-30.910156.488281-.011718.976562-.015625 1.460937-.015625 8.355469 0 16.585937 1.554688 24.414063 4.535157-4.570313-10.75-11.144532-20.425782-19.722657-29.003907-14.371093-14.371093-32.566406-22.226562-51.386719-22.226562-.488281 0-.976562.003906-1.464843.015625-21.839844.472656-43.824219 11.160156-63.578125 30.910156-4.109375 4.109375-7.894532 8.5625-11.257813 13.230469-32.074219 44.554687-82.949219 74.25-139.582031 81.472656-31.238281 3.984375-59.558594 17.898437-81.898438 40.234375-55.089843 55.089844-55.089843 144.730469 0 199.824219 7.820313 7.820312 16.3125 14.011719 25.222657 19.121093-32.3125-54.234374-25.15625-125.621093 21.476562-172.25zm0 0" fill="#fff"/><path d="m210.933594 444.570312c43.386718-11.457031 90.945312-39.761718 137.71875-86.535156 48.054687-48.054687 86.085937-105.183594 104.34375-156.746094 14.492187-40.917968 15.878906-75.316406 4.21875-102.734374-7.832032-2.980469-16.058594-4.539063-24.414063-4.539063-.488281 0-.976562.007813-1.464843.015625-21.84375.472656-43.828126 11.164062-63.578126 30.914062-4.109374 4.109376-7.898437 8.558594-11.257812 13.230469-32.074219 44.550781-82.953125 74.246094-139.585938 81.46875-31.238281 3.984375-59.558593 17.898438-81.894531 40.234375-46.632812 46.632813-53.789062 118.019532-21.476562 172.253906 8.425781 4.832032 17.230469 8.699219 26.203125 12.023438 20.058594 7.433594 47.230468 6.738281 71.1875.414062zm0 0" fill="#ef0000"/><path d="m386.359375 124.808594c5.320313 0 10.347656 1.257812 14.804687 3.476562-5.445312-10.9375-16.734374-18.453125-29.785156-18.453125-18.367187 0-33.261718 14.890625-33.261718 33.261719 0 13.046875 7.519531 24.335938 18.457031 29.785156-2.222657-4.460937-3.476563-9.488281-3.476563-14.808594 0-18.367187 14.890625-33.261718 33.261719-33.261718zm0 0" fill="#fff"/><path d="m404.640625 143.09375c0-5.320312-1.253906-10.34375-3.476563-14.804688-4.460937-2.222656-9.484374-3.476562-14.804687-3.476562-18.371094 0-33.261719 14.890625-33.261719 33.261719 0 5.320312 1.253906 10.34375 3.476563 14.804687 4.460937 2.222656 9.484375 3.476563 14.804687 3.476563 18.371094 0 33.261719-14.890625 33.261719-33.261719zm0 0" fill="#ffd29f"/><path d="m173.074219 495.953125c-18.925781 0-37.171875-2.976563-54.488281-8.910156-23.875-8.179688-45.410157-21.757813-64.011719-40.355469-72.765625-72.769531-72.765625-191.167969 0-263.9375 29.503906-29.5 66.921875-47.878906 108.214843-53.144531 46.59375-5.945313 88.304688-30.171875 114.429688-66.464844 4.757812-6.605469 10.109375-12.894531 15.910156-18.695313 28.007813-28.011718 60.453125-43.195312 93.820313-43.917968 31.316406-.6875 61.382812 11.75 84.632812 35 42.980469 42.980468 51.882813 104.722656 25.738281 178.542968-20.71875 58.515626-63.292968 122.765626-116.796874 176.269532-60.25 60.25-123.480469 96.207031-182.851563 103.980468-8.308594 1.089844-16.515625 1.632813-24.597656 1.632813zm216.292969-474.554687c-.65625 0-1.308594.007812-1.964844.023437-27.878906.601563-55.367188 13.675781-79.492188 37.800781-5.007812 5.007813-9.625 10.433594-13.726562 16.128906-29.5 40.980469-76.429688 68.3125-128.75 74.984376-36.65625 4.675781-69.878906 20.996093-96.078125 47.195312-64.617188 64.617188-64.617188 169.757812 0 234.375 33.628906 33.632812 77.0625 48.046875 125.605469 41.691406 54.765624-7.171875 113.820312-41.074218 170.785156-98.039062 51.378906-51.378906 92.15625-112.78125 111.875-168.464844 16.222656-45.808594 25.777344-110.195312-20.816406-156.789062-18.6875-18.6875-42.566407-28.90625-67.4375-28.90625zm0 0"/><path d="m346.90625 130.335938c-2.679688 0-5.359375-1.019532-7.398438-3.066407-4.070312-4.082031-4.074218-10.683593 0-14.761719l.222657-.21875c4.125-4.035156 10.742187-3.964843 14.78125.160157 4.035156 4.125 3.964843 10.742187-.164063 14.78125l-.0625.058593c-2.039062 2.03125-4.710937 3.046876-7.378906 3.046876zm0 0"/><path d="m371.148438 186.804688c-21.515626 0-39.71875-15.378907-43.28125-36.574219-.957032-5.691407 2.878906-11.082031 8.570312-12.039063 5.691406-.949218 11.082031 2.882813 12.039062 8.574219 1.867188 11.089844 11.402344 19.140625 22.671876 19.140625 12.675781 0 22.988281-10.3125 22.988281-22.992188 0-11.320312-8.425781-21.097656-19.597657-22.746093-5.710937-.839844-9.65625-6.148438-8.816406-11.859375.839844-5.710938 6.15625-9.664063 11.863282-8.816406 21.351562 3.144531 37.453124 21.8125 37.453124 43.421874 0 24.203126-19.6875 43.890626-43.890624 43.890626zm0 0"/><path d="m174.761719 459.550781c-.023438 0-.042969 0-.0625 0h-.199219c-5.769531 0-10.449219-4.679687-10.449219-10.449219 0-5.773437 4.679688-10.453124 10.449219-10.453124h.320312c5.773438.035156 10.425782 4.742187 10.390626 10.515624-.035157 5.75-4.707032 10.386719-10.449219 10.386719zm36.164062-4.53125c-4.707031 0-8.984375-3.203125-10.144531-7.980469-.203125-.832031-.300781-1.664062-.300781-2.484374.003906-4.707032 3.207031-8.980469 7.984375-10.140626 42.390625-10.316406 88.3125-39.285156 132.796875-83.769531 46.992187-46.992187 84.128906-102.699219 101.886719-152.84375 7.582031-21.414062 11.367187-40.828125 11.371093-58.164062.003907-25.445313-8.144531-46.425781-24.417969-62.699219-12.675781-12.675781-28.757812-19.539062-45.222656-19.152344-19.109375.414063-38.617187 10.042969-56.425781 27.851563-3.714844 3.714843-7.136719 7.734375-10.167969 11.945312-33.761718 46.898438-87.246094 78.144531-146.742187 85.734375-28.921875 3.6875-55.144531 16.570313-75.832031 37.257813-25.507813 25.507812-38.261719 59.015625-38.261719 92.523437 0 33.507813 12.753906 67.011719 38.261719 92.523438 13.769531 13.765625 29.582031 23.359375 47 28.511718 4.546874 1.347657 7.492187 5.507813 7.492187 10.019532 0 .980468-.140625 1.980468-.433594 2.96875-1.636719 5.535156-7.449219 8.691406-12.984375 7.054687-20.796875-6.152343-39.589844-17.515625-55.851562-33.777343-29.582032-29.585938-44.371094-68.445313-44.371094-107.304688s14.789062-77.71875 44.371094-107.300781c23.992187-23.988281 54.410156-38.929688 87.964844-43.210938 53.769531-6.859375 102.035156-35 132.425781-77.210937 3.683593-5.121094 7.839843-10.003906 12.347656-14.511719 21.691406-21.695313 46.15625-33.441406 70.742187-33.972656.554688-.011719 1.121094-.019531 1.691407-.019531 21.59375 0 42.46875 8.980468 58.777343 25.289062 20.429688 20.429688 30.660157 46.210938 30.65625 77.039062-.003906 19.800782-4.230468 41.6875-12.6875 65.578126-18.761718 52.976562-57.691406 111.53125-106.808593 160.648437-47.195313 47.199219-96.519531 78.074219-142.636719 89.296875-.832031.207031-1.660156.300781-2.480469.300781zm0 0"/></svg>