<svg height="512pt" viewBox="0 -20 512.00206 512" width="512pt" xmlns="http://www.w3.org/2000/svg"><g fill="#fab617"><path d="m377.425781 68.046875c-9.039062-23.363281-31.042969-38.75-48.378906-47.695313-6.234375 18.066407-12.015625 45.324219-2.546875 69.8125 9.03125 23.339844 30.4375 38.957032 47.269531 48.101563 6.738281-18.273437 13.121094-45.757813 3.65625-70.21875zm0 0"/><path d="m297.757812 115.183594c-8.546874 16.816406-17.078124 41.128906-12.011718 65.195312 5.757812 27.3125 28.25 47.621094 43.996094 58.847656 9.085937-16.933593 18.257812-41.449218 13.167968-65.578124-5.738281-27.238282-28.863281-47.335938-45.152344-58.464844zm0 0"/><path d="m242.113281 193.945312c-9.414062 16.632813-21.144531 44.230469-15.402343 71.507813 4.851562 23.011719 21.582031 41.050781 36.148437 52.878906 9.945313-16.773437 22.308594-44.441406 16.578125-71.621093-4.867188-23.09375-22.226562-41.050782-37.324219-52.765626zm0 0"/><path d="m206.382812 314.46875c-.671874-25.527344-16.816406-47.777344-30.300781-62-11.910156 14.933594-26.359375 38.554688-25.675781 64.664062.671875 25.511719 16.164062 47.785157 29.105469 62.03125 12.453125-14.957031 27.5625-38.597656 26.871093-64.695312zm0 0"/><path d="m357.457031 274.132812-.011719.003907zm0 0"/><path d="m407.011719 196.320312c-39.050781 20.152344-49.449219 77.34375-49.546875 77.808594l-.007813.003906h-.003906.003906c.0625.023438 3.832031 1.605469 10.066407 3.515626 14.902343.90625 31.484374-.738282 46.296874-8.378907 39.113282-20.183593 50.398438-75.875 50.429688-76.121093l.019531-.011719s-5.171875-2.308594-13.476562-4.851563c-14.3125-.816406-29.882813.863282-43.78125 8.035156zm0 0"/><path d="m363.878906 300.546875c-43.875 2.445313-76.726562 50.40625-77.003906 50.789063h-.007812.003906-.003906c.089843.09375 10.707031 11.433593 27.15625 21.796874 6.964843 1.664063 14.25 2.492188 21.703124 2.078126 43.945313-2.449219 76.992188-48.675782 77.117188-48.886719l.023438-.003907s-11.429688-12.765624-28.972657-23.960937c-6.453125-1.480469-13.164062-2.195313-20.015625-1.8125zm0 0"/><path d="m186.855469 421.808594h.003906v.003906h-.003906zm0 0"/><path d="m277.152344 393.476562c-43.960938-9.984374-89.90625 28.035157-90.289063 28.335938l-.007812-.003906c.054687.101562 5.269531 10.273437 14.925781 22.410156 9.320312 7.179688 20.210938 13.164062 32.5 15.957031 44.035156 10 89.679688-26.257812 89.867188-26.429687l.023437.003906s-5.742187-11.847656-16.449219-25.402344c-8.859375-6.742187-19.089844-12.265625-30.570312-14.871094zm0 0"/><path d="m449.304688 86.433594c-32.117188 22.109375-39.050782 69.09375-40.214844 79.710937 17.082031.222657 36.949218-2.660156 53.117187-13.792969 31.339844-21.574218 37.867188-67.976562 39.078125-80.347656-16.6875.199219-36.027344 3.453125-51.980468 14.429688zm0 0"/></g><path d="m510.113281 62.921875c-1.511719-2.160156-3.695312-3.574219-6.070312-4.15625-4.835938-1.289063-60.03125-15.148437-98.730469 11.476563-2.53125 1.742187-4.917969 3.621093-7.171875 5.597656 2.425781-18.675782 3.6875-37.589844 3.6875-56.652344 0-5.769531-4.679687-10.445312-10.449219-10.445312-5.769531 0-10.445312 4.675781-10.445312 10.445312 0 10.359375-.386719 20.628906-1.128906 30.804688-21.308594-32.691407-63.589844-47.078126-70.863282-49.355469-2.289062-.835938-4.875-.878907-7.328125.0625-2.496093.957031-4.410156 2.769531-5.542969 4.972656-2.183593 4.058594-24.957031 47.816406-14.71875 89.109375-.886718-.027344-1.789062.054688-2.695312.265625-2.515625.589844-4.601562 2.042969-6.019531 3.972656-2.792969 3.632813-31.132813 41.632813-29.015625 83.007813-9.898438-7.125-18.1875-11.480469-20.960938-12.871094-2.152344-1.203125-4.738281-1.652344-7.332031-1.078125-2.472656.542969-4.550781 1.921875-5.992187 3.777344-1.253907 1.601562-25.441407 33.007812-28.898438 70.109375-7.40625-7.410156-13.636719-12.300782-15.894531-14.003906-1.851563-1.535157-4.257813-2.46875-6.828125-2.40625-2.703125.039062-5.152344 1.105468-6.984375 2.820312-3.667969 3.304688-45.429688 42.042969-44.203125 89.035156.902344 34.140625 24.507812 62.222656 39.40625 76.605469-41.894532 20.121094-87.859375 33.484375-136.582032 38.617187-5.734374.605469-9.898437 5.746094-9.2929682 11.484376.5664062 5.367187 5.0976562 9.351562 10.3750002 9.351562.367187 0 .738281-.019531 1.109375-.058594 51.667969-5.441406 101.414062-20.03125 147.199219-42.671875 9.433593 15.320313 34.996093 50.933594 73.226562 59.625 6.144531 1.394531 12.28125 2.007813 18.324219 2.007813 38.011719 0 72.15625-24.21875 79.496093-29.8125.992188-.632813 1.886719-1.4375 2.632813-2.398438 2.4375-3.136718 2.886719-7.386718 1.152344-10.964844-.878907-1.8125-17.308594-35.105468-46.96875-55.328124 13.21875 6.714843 28.773437 11.898437 45.351562 11.898437 1.441407 0 2.898438-.039063 4.355469-.121094 44.707031-2.492187 78.0625-43.949219 84.375-52.390625.777344-.875 1.410156-1.886718 1.863281-3.003906 1.5-3.695312.761719-7.921875-1.894531-10.894531-1.050781-1.175781-16.925781-18.648438-40.328125-31.210938 12.722656-.574219 25.988281-3.253906 38.285156-9.59375 39.832031-20.554687 53.3125-71.96875 55.625-82.28125.34375-1.085937.507813-2.238281.476563-3.414062-.105469-4.019531-2.511719-7.617188-6.183594-9.257813-1.09375-.488281-13.90625-6.105468-31.664062-9.59375 10.777343-2.304687 21.550781-6.355468 31.265624-13.046875 37.863282-26.0625 43.199219-82.207031 43.800782-90.839843.28125-2.449219-.296875-5.011719-1.820313-7.195313zm-125.90625 111.445313c-4.203125 1.101562-8.375 2.53125-12.460937 4.347656.824218-2.101563 1.628906-4.214844 2.417968-6.328125 2.667969.617187 6.070313 1.320312 10.042969 1.980469zm-73.472656-150.882813c15.1875 6.058594 46.542969 21.4375 56.949219 48.332031 10.429687 26.945313-1.601563 59.332032-8.347656 73.980469-7.320313-3.089844-18.539063-8.542969-29.242188-16.59375-5.011719-5.480469-10.332031-10.324219-15.492188-14.507813-4.421874-5.289062-8.179687-11.226562-10.742187-17.855468-10.375-26.828125.566406-58.734375 6.875-73.355469zm43.578125 142.800781c-.492188 1.304688-.96875 2.613282-1.46875 3.910156-.394531-1.710937-.84375-3.402343-1.347656-5.058593.996094.417969 1.9375.800781 2.816406 1.148437zm-70.058594-47.339844c4.320313 2.597657 10.085938 6.234376 16.003906 11.046876 6.25 5.082031 10.609376 9.660156 15.484376 14.472656 7.378906 7.289062 14.421874 19.351562 16.949218 31.339844 5.960938 28.269531-11.121094 58.300781-20.132812 71.671874-13.484375-8.46875-40.894532-28.8125-46.882813-57.234374-5.925781-28.140626 10-57.875 18.578125-71.296876zm7.039063 139.273438c3.558593 2.617188 6.882812 4.851562 9.757812 6.667969-3.785156 5.183593-7.695312 10.273437-11.714843 15.269531 1.4375-7.066406 2.203124-14.4375 1.957031-21.9375zm-70.515625-66.214844c14.015625 8.421875 42.492187 28.644532 48.4375 56.859375 5.964844 28.273438-11.117188 58.304688-20.132813 71.675781-13.480469-8.472656-40.890625-28.816406-46.882812-57.238281-5.929688-28.164062 10.003906-57.886719 18.578125-71.296875zm-93.359375 124.855469c-.753907-28.765625 20.277343-55.132813 31.132812-66.777344 12.269531 10.8125 36.628907 35.839844 37.390625 64.664063.761719 28.878906-21.453125 55.339844-32.730468 66.867187-11.734376-10.761719-35.023438-35.714843-35.792969-64.753906zm89.1875 5.40625c6.542969 5.769531 12.945312 10.417969 18.253906 13.921875-9.386719 7.988281-19.140625 15.566406-29.238281 22.710938 5.625-10.945313 9.949218-23.359376 10.984375-36.632813zm93.863281 108.378906c-13.601562 8.921875-44.554688 26-73.871094 19.34375-29.039062-6.601562-50.039062-34.515625-58.796875-48.210937 13.785157-9.4375 45.09375-27.570313 74.1875-20.964844 29.152344 6.617188 49.941407 35.75 58.480469 49.832031zm-53.855469-70.207031c-5.515625-1.253906-11.03125-1.84375-16.476562-1.914062 3.761719-3.054688 7.476562-6.171876 11.144531-9.355469 4.78125 4.382812 12.46875 10.855469 22.230469 17.160156-5.304688-2.515625-10.941407-4.539063-16.898438-5.890625zm78.535157 4.34375c-28.746094 1.613281-55.714844-18.65625-67.660157-29.160156 10.445313-12.578125 34.75-37.664063 63.542969-39.269532 28.851562-1.601562 55.945312 19.824219 67.796875 30.757813-10.417969 12.046875-34.679687 36.058594-63.679687 37.671875zm116.625-165.191406c-4.589844 15.246094-16.925782 47.074218-42.738282 60.394531-25.589844 13.191406-58.476562 5.71875-73.675781 1.011719 4.398437-15.75 16.339844-48.570313 41.96875-61.796875 25.675781-13.246094 59.164063-4.75 74.445313.390625zm4.507812-55.84375c-23.796875 16.386718-58.089844 12.183594-73.898438 9.011718 2.628907-15.707031 10.851563-48.835937 34.777344-65.304687 23.703125-16.308594 57.273438-13.050781 72.953125-10.296875-2.375 16.175781-10.078125 50.238281-33.832031 66.589844zm0 0"/></svg>