<svg height="512pt" viewBox="0 -42 512 512" width="512pt" xmlns="http://www.w3.org/2000/svg"><path d="m472.417969 239.0625v55.339844c0 16.257812-12.988281 29.476562-29.128907 29.785156h-.046874c-16.140626-.308594-29.132813-13.527344-29.132813-29.785156v-49.277344c0-16.257812-12.988281-29.472656-29.132813-29.78125-16.65625-.320312-30.289062 13.667969-30.289062 30.371094v16.914062c0 21.117188-17.238281 38.804688-38.296875 38.402344-20.410156-.394531-36.835937-17.101562-36.835937-37.65625v-18.25c0-16.257812-12.988282-29.472656-29.128907-29.78125-16.65625-.320312-30.292969 13.667969-30.292969 30.371094v40.0625c0 21.121094-17.238281 38.804687-38.296874 38.402344-20.410157-.390626-36.832032-17.101563-36.832032-37.65625v-36.871094c0-.855469-.039062-1.703125-.09375-2.546875v127.246093c0 23.851563 19.332032 43.183594 43.179688 43.183594h270.277344c23.851562 0 43.183593-19.332031 43.183593-43.183594v-165.074218c-16.140625.308594-29.132812 13.527344-29.132812 29.785156zm0 0" fill="#ffa30c"/><path d="m458.367188 124.964844h-270.277344c-23.847656 0-43.179688 19.332031-43.179688 43.183594v78.960937c.054688.839844.09375 1.6875.09375 2.542969v36.871094c0 20.554687 16.421875 37.265624 36.832032 37.65625 21.058593.40625 38.296874-17.28125 38.296874-38.398438v-40.066406c0-16.703125 13.632813-30.691406 30.292969-30.371094 16.140625.308594 29.128907 13.523438 29.128907 29.785156v18.246094c0 20.554688 16.425781 37.265625 36.835937 37.65625 21.058594.402344 38.296875-17.28125 38.296875-38.402344v-16.914062c0-16.703125 13.632812-30.691406 30.289062-30.371094 16.144532.308594 29.132813 13.523438 29.132813 29.785156v49.273438c0 16.261718 12.992187 29.476562 29.132813 29.785156h.046874c16.140626-.308594 29.128907-13.527344 29.128907-29.785156v-55.339844c0-16.257812 12.992187-29.476562 29.132812-29.785156v-41.128906c0-23.851563-19.332031-43.183594-43.183593-43.183594zm0 0" fill="#871b00"/><path d="m331.882812 100.535156c17.359376-17.257812 22.910157-42.742187 24.410157-62.058594-18.949219-.292968-54.246094 2.460938-76.335938 24.414063-2.851562 2.832031-6.476562 5.359375-7.636719 9.109375l-10.9375 52.929688c19.726563-.394532 50.523438-4.542969 70.5-24.394532zm0 0" fill="#9ae523"/><path d="m231.230469 18.839844c-20.074219 8.234375-34.21875 27.964844-34.21875 51.007812 0 23.042969 14.144531 42.769532 34.21875 51.003906 20.078125-8.234374 34.222656-27.960937 34.222656-51.003906 0-23.042968-14.144531-42.773437-34.222656-51.007812zm0 0" fill="#ff3939"/><path d="m323.359375 54.097656c-2.671875 0-5.347656-1.019531-7.386719-3.058594-4.082031-4.082031-4.082031-10.695312 0-14.777343l.097656-.097657c4.078126-4.082031 10.695313-4.082031 14.777344 0 4.078125 4.078126 4.078125 10.695313 0 14.777344l-.097656.097656c-2.042969 2.039063-4.714844 3.058594-7.390625 3.058594zm0 0"/><path d="m458.367188 114.515625h-126.691407c2.632813-2 5.171875-4.179687 7.578125-6.570313 33.285156-33.097656 28.046875-90.375 27.230469-97.640624-.484375-4.960938-4.5625-8.996094-9.53125-9.417969-8.011719-.9453128-63.898437-6.183594-97.066406 26.09375-12.03125-13.886719-29.777344-22.699219-49.550781-22.699219-36.15625 0-65.570313 29.410156-65.570313 65.566406 0 17.246094 6.707031 32.949219 17.632813 44.667969h-108.765626c-29.574218 0-53.632812 24.058594-53.632812 53.632813v206.207031c0 29.570312 24.058594 53.628906 53.632812 53.628906h404.734376c29.574218 0 53.632812-24.058594 53.632812-53.628906v-206.207031c0-29.574219-24.058594-53.632813-53.632812-53.632813zm-186.652344-69.96875c.796875-.726563 1.589844-1.453125 2.335937-2.195313 20.550781-20.421874 55.992188-21.804687 72.21875-21.25.527344 16.203126-.992187 51.382813-21.75 72.019532-15.601562 15.503906-39.320312 20.085937-56.996093 21.144531l39.324218-39.324219c4.078125-4.078125 4.078125-10.695312 0-14.777344-4.082031-4.078124-10.699218-4.078124-14.777344 0l-16.527343 16.527344c.234375-2.25.359375-4.535156.359375-6.84375 0-8.734375-1.730469-17.066406-4.84375-24.695312.226562-.214844.453125-.417969.65625-.605469zm-106.050782 25.300781c0-24.632812 20.039063-44.671875 44.667969-44.671875 24.632813 0 44.671875 20.039063 44.671875 44.671875 0 24.628906-20.039062 44.667969-44.671875 44.667969-24.628906 0-44.667969-20.039063-44.667969-44.667969zm-144.765624 98.300782c0-18.050782 14.683593-32.734376 32.734374-32.734376h404.734376c18.050781 0 32.734374 14.683594 32.734374 32.734376v32.242187c-16.757812 4.855469-29.132812 20.457031-29.132812 38.671875v55.339844c0 10.402344-8.375 19.039062-18.703125 19.332031-10.332031-.292969-18.707031-8.929687-18.707031-19.332031v-49.277344c0-21.765625-17.664063-39.816406-39.378906-40.230469-10.679688-.199219-20.839844 3.871094-28.59375 11.476563-7.847657 7.695312-12.347657 18.390625-12.347657 29.34375v16.914062c0 7.53125-3.105469 14.898438-8.519531 20.207032-5.230469 5.132812-12.03125 7.875-19.128906 7.746093-14.660156-.28125-26.582032-12.488281-26.582032-27.210937v-18.246094c0-21.769531-17.667968-39.816406-39.382812-40.230469-10.6875-.203125-20.839844 3.871094-28.59375 11.472657-7.847656 7.699218-12.34375 18.394531-12.34375 29.34375v40.066406c0 7.53125-3.105469 14.898437-8.519531 20.207031-5.230469 5.132813-12.042969 7.875-19.128907 7.746094-14.660156-.28125-26.585937-12.488281-26.585937-27.210938v-36.871093c0-13.109376-5.386719-25.910157-14.78125-35.128907-9.269531-9.089843-21.394531-13.992187-34.164063-13.71875-25.960937.5-47.082031 22.078125-47.082031 48.105469v14.5625c0 5.375-2.214843 10.632812-6.082031 14.425781-3.714844 3.640625-8.535156 5.59375-13.558594 5.5-10.417968-.199219-18.886718-8.871093-18.886718-19.335937zm437.46875 238.9375h-404.734376c-18.050781 0-32.734374-14.683594-32.734374-32.730469v-75.050781c5.515624 3.058593 11.804687 4.859374 18.480468 4.984374 10.699219.207032 20.84375-3.871093 28.597656-11.476562 7.84375-7.695312 12.34375-18.390625 12.34375-29.339844v-14.566406c0-14.71875 11.925782-26.925781 26.585938-27.207031 7.109375-.125 13.898438 2.613281 19.128906 7.742187 5.414063 5.3125 8.519532 12.679688 8.519532 20.210938v36.871094c0 26.027343 21.121093 47.605468 47.078124 48.105468.308594.003906.613282.007813.917969.007813 12.425781 0 24.203125-4.855469 33.246094-13.730469 9.394531-9.214844 14.785156-22.019531 14.785156-35.125v-40.066406c0-5.375 2.214844-10.632813 6.082031-14.425782 3.714844-3.644531 8.542969-5.570312 13.558594-5.5 10.414063.199219 18.882813 8.875 18.882813 19.335938v18.25c0 26.027344 21.121093 47.605469 47.082031 48.101562 12.769531.273438 24.894531-4.625 34.164062-13.71875 9.394532-9.214843 14.78125-22.019531 14.78125-35.128906v-16.914062c0-5.375 2.21875-10.632813 6.085938-14.425782 3.714844-3.644531 8.539062-5.570312 13.558594-5.5 10.410156.199219 18.882812 8.875 18.882812 19.335938v49.277344c0 21.765625 17.664063 39.816406 39.378906 40.230468.132813.003907.3125.003907.445313 0 21.714844-.414062 39.382813-18.464843 39.382813-40.230468v-55.339844c0-6.496094 3.265624-12.296875 8.234374-15.816406v151.105468c0 18.050782-14.683593 32.734376-32.734374 32.734376zm0 0"/></svg>