<svg height="512pt" viewBox="0 -123 512 512" width="512pt" xmlns="http://www.w3.org/2000/svg"><path d="m274.808594 255.289062c126.824218-9.605468 226.742187-115.554687 226.742187-244.839843h-44.929687c0 110.800781-89.820313 200.621093-200.621094 200.621093s-200.621094-89.820312-200.621094-200.621093h-7.3125c0 129.285156 99.914063 235.234375 226.742188 244.839843zm0 0" fill="#4bdd6b"/><path d="m294.140625 207.433594c92.554687-17.816406 162.480469-99.226563 162.480469-196.984375h-324.964844c0 97.757812 69.925781 179.167969 162.484375 196.984375zm0 0" fill="#f7222b"/><path d="m380.34375 70.519531c5.769531 0 10.449219-4.679687 10.449219-10.449219v-.652343c0-5.769531-4.679688-10.449219-10.449219-10.449219s-10.449219 4.679688-10.449219 10.449219v.652343c0 5.769532 4.679688 10.449219 10.449219 10.449219zm0 0"/><path d="m307.722656 78.226562v.652344c0 5.769532 4.679688 10.449219 10.449219 10.449219s10.449219-4.679687 10.449219-10.449219v-.652344c0-5.769531-4.679688-10.449218-10.449219-10.449218s-10.449219 4.679687-10.449219 10.449218zm0 0"/><path d="m245.550781 59.417969v.652343c0 5.769532 4.679688 10.449219 10.449219 10.449219s10.449219-4.679687 10.449219-10.449219v-.652343c0-5.769531-4.679688-10.449219-10.449219-10.449219s-10.449219 4.679688-10.449219 10.449219zm0 0"/><path d="m183.378906 78.226562v.652344c0 5.769532 4.679688 10.449219 10.449219 10.449219s10.449219-4.679687 10.449219-10.449219v-.652344c0-5.769531-4.679688-10.449218-10.449219-10.449218s-10.449219 4.679687-10.449219 10.449218zm0 0"/><path d="m121.207031 59.417969v.652343c0 5.769532 4.679688 10.449219 10.449219 10.449219s10.449219-4.679687 10.449219-10.449219v-.652343c0-5.769531-4.679688-10.449219-10.449219-10.449219s-10.449219 4.679688-10.449219 10.449219zm0 0"/><path d="m345.339844 117.75v.648438c0 5.773437 4.679687 10.449218 10.449218 10.449218 5.769532 0 10.449219-4.675781 10.449219-10.449218v-.648438c0-5.773438-4.679687-10.449219-10.449219-10.449219-5.769531 0-10.449218 4.675781-10.449218 10.449219zm0 0"/><path d="m283.167969 136.558594v.648437c0 5.773438 4.679687 10.449219 10.449219 10.449219 5.769531 0 10.449218-4.675781 10.449218-10.449219v-.648437c0-5.773438-4.679687-10.449219-10.449218-10.449219-5.769532 0-10.449219 4.675781-10.449219 10.449219zm0 0"/><path d="m220.996094 117.75v.648438c0 5.773437 4.679687 10.449218 10.449218 10.449218 5.769532 0 10.449219-4.675781 10.449219-10.449218v-.648438c0-5.773438-4.679687-10.449219-10.449219-10.449219-5.769531 0-10.449218 4.675781-10.449218 10.449219zm0 0"/><path d="m158.824219 136.558594v.648437c0 5.773438 4.679687 10.449219 10.449219 10.449219 5.769531 0 10.449218-4.675781 10.449218-10.449219v-.648437c0-5.773438-4.679687-10.449219-10.449218-10.449219-5.769532 0-10.449219 4.675781-10.449219 10.449219zm0 0"/><path d="m348.179688 20.898438h.132812c5.769531 0 10.449219-4.679688 10.449219-10.449219s-4.679688-10.449219-10.449219-10.449219h-.132812c-5.769532 0-10.449219 4.679688-10.449219 10.449219s4.675781 10.449219 10.449219 10.449219zm0 0"/><path d="m501.550781 0h-118.765625c-5.769531 0-10.449218 4.679688-10.449218 10.449219s4.679687 10.449219 10.449218 10.449219h63.097656c-5.445312 100.019531-88.527343 179.722656-189.882812 179.722656s-184.4375-79.703125-189.882812-179.722656h248.914062c5.769531 0 10.449219-4.679688 10.449219-10.449219s-4.679688-10.449219-10.449219-10.449219h-304.582031c-5.769531 0-10.449219 4.679688-10.449219 10.449219 0 68.378906 26.628906 132.667969 74.980469 181.019531 48.351562 48.351562 112.640625 74.980469 181.019531 74.980469s132.667969-26.628907 181.019531-74.980469c48.351563-48.351562 74.980469-112.640625 74.980469-181.019531 0-5.769531-4.679688-10.449219-10.449219-10.449219zm-245.550781 245.550781c-126.140625 0-229.394531-99.839843-234.871094-224.652343h24.0625c5.464844 111.546874 97.929688 200.621093 210.808594 200.621093s205.34375-89.074219 210.808594-200.621093h24.0625c-5.476563 124.8125-108.730469 224.652343-234.871094 224.652343zm0 0"/></svg>