<svg height="512pt" viewBox="0 0 512 512" width="512pt" xmlns="http://www.w3.org/2000/svg"><path d="m331.5625 344.207031h170.417969v157.792969h-170.417969zm0 0" fill="#ffc943"/><path d="m343.324219 375.992188c0-13.820313 8.828125-25.574219 21.152343-29.945313-3.324218-1.179687-6.898437-1.828125-10.625-1.828125-17.546874 0-31.773437 14.226562-31.773437 31.777344 0 17.546875 14.226563 31.773437 31.773437 31.773437 3.726563 0 7.300782-.648437 10.625-1.828125-12.324218-4.371094-21.152343-16.125-21.152343-29.949218zm0 0" fill="#fff"/><path d="m385.625 375.992188c0-13.820313-8.828125-25.574219-21.148438-29.945313-12.324218 4.371094-21.152343 16.125-21.152343 29.945313 0 13.824218 8.828125 25.578124 21.152343 29.949218 12.320313-4.371094 21.148438-16.125 21.148438-29.949218zm0 0" fill="#d8902a"/><path d="m341.601562 344.207031h160.378907l-43.671875-55.300781zm0 0" fill="#ffc943"/><path d="m204.410156 194.398438c-19.300781-29.398438-29.417968-63.796876-29.417968-98.964844v-85.433594h-58.984376v85.433594c0 35.167968-10.113281 69.566406-29.414062 98.964844-19.300781 29.398437-29.585938 63.800781-29.585938 98.964843v208.617188h176.984376v-208.617188c0-35.164062-10.285157-69.566406-29.582032-98.964843zm0 0" fill="#72c6cc"/><path d="m112.664062 10h61.578126v96.996094h-61.578126zm0 0" fill="#41a5a5"/><path d="m10 293.363281v208.617188h223.992188v-208.617188c0-12.640625-1.335938-25.179687-3.9375-37.421875h-216.121094c-2.597656 12.242188-3.933594 24.78125-3.933594 37.421875zm0 0" fill="#fff"/><path d="m267.996094 407.835938 3.335937 39.699218c11.117188-1.871094 20.28125-9.472656 24.363281-19.660156-4.484374-11.191406-15.101562-19.257812-27.699218-20.039062zm0 0" fill="#d8902a"/><path d="m456.574219 404.640625c0-14.453125 9.1875-26.753906 22.039062-31.394531-3.539062-1.277344-7.355469-1.976563-11.335937-1.976563-18.429688 0-33.371094 14.941407-33.371094 33.371094s14.941406 33.371094 33.371094 33.371094c3.980468 0 7.796875-.703125 11.335937-1.980469-12.851562-4.636719-22.039062-16.941406-22.039062-31.390625zm0 0" fill="#fff"/><path d="m500.648438 404.640625c0-14.453125-9.1875-26.753906-22.035157-31.394531-12.851562 4.640625-22.039062 16.941406-22.039062 31.394531 0 14.449219 9.1875 26.753906 22.039062 31.390625 12.847657-4.636719 22.035157-16.941406 22.035157-31.390625zm0 0" fill="#d8902a"/><path d="m403.308594 464.648438c-4.453125-1.710938-9.28125-2.65625-14.332032-2.65625-22.085937 0-39.988281 17.902343-39.988281 39.988281h28.664063c0-17.03125 10.652344-31.566407 25.65625-37.332031zm0 0" fill="#fff"/><path d="m403.308594 464.648438c-15.003906 5.765624-25.65625 20.300781-25.65625 37.332031h51.308594c0-17.03125-10.652344-31.566407-25.652344-37.332031zm0 0" fill="#d8902a"/><path d="m324.609375 392.058594c-3.988281 3.820312-4.125 10.148437-.308594 14.140625l.25.25c1.945313 1.96875 4.496094 2.949219 7.054688 2.949219 2.539062 0 5.082031-.96875 7.039062-2.902344 3.925781-3.871094 3.9375-10.222656.078125-14.15625-3.824218-3.964844-10.132812-4.089844-14.113281-.28125zm0 0"/><path d="m212.765625 188.910156c-18.167969-27.675781-27.773437-60-27.773437-93.476562v-85.433594c0-5.523438-4.476563-10-10-10h-105.992188c-5.523438 0-10 4.476562-10 10v85.433594c0 33.476562-9.605469 65.800781-27.773438 93.476562-20.429687 31.113282-31.226562 67.234375-31.226562 104.453125v208.617188c0 5.523437 4.476562 10 10 10h223.992188c5.519531 0 9.996093-4.476563 9.996093-10v-208.617188c0-37.21875-10.792969-73.339843-31.222656-104.453125zm11.226563 104.453125v198.617188h-203.992188v-198.617188c0-9.226562.769531-18.371093 2.226562-27.375h143c5.523438 0 10-4.476562 10-10 0-5.523437-4.476562-10-10-10h-138.503906c4.699219-16.234375 11.808594-31.765625 21.21875-46.101562 20.316406-30.945313 31.054688-67.066407 31.054688-104.453125v-75.433594h85.996094v75.433594c0 .519531.011718 1.042968.015624 1.5625h-27.777343c-5.523438 0-10 4.476562-10 10 0 5.523437 4.476562 10 10 10h28.96875c3.320312 29.628906 13.46875 57.941406 29.851562 82.890625 18.277344 27.84375 27.941407 60.167969 27.941407 93.476562zm0 0"/><path d="m107.800781 96.996094h-.117187c-5.523438 0-10 4.476562-10 10 0 5.523437 4.476562 10 10 10h.117187c5.523438 0 10-4.476563 10-10 0-5.523438-4.476562-10-10-10zm0 0"/><path d="m186.660156 255.988281c0 5.523438 4.476563 10 10 10h.117188c5.523437 0 10-4.476562 10-10 0-5.523437-4.476563-10-10-10h-.117188c-5.523437 0-10 4.476563-10 10zm0 0"/><path d="m509.820312 338.011719s.003907-.003907.007813-.003907l-64.265625-81.371093c-2.886719-3.660157-7.917969-4.835938-12.128906-2.839844l-171.726563 81.371094c0 .003906.003907.007812.003907.011719-3.378907 1.601562-5.722657 5.035156-5.722657 9.027343v157.792969c0 5.523438 4.480469 10 10 10h235.992188c5.519531 0 10-4.476562 10-10v-157.792969c0-2.34375-.8125-4.492187-2.160157-6.195312zm-75.015624-62.734375 46.535156 58.929687h-170.894532zm-158.816407 121.121094c7.113281 3.648437 12 11.054687 12 19.582031 0 8.492187-4.785156 15.9375-12 19.597656zm84.714844 95.601562c4.121094-11.644531 15.234375-20.007812 28.273437-20.007812 13.035157 0 24.152344 8.363281 28.273438 20.007812zm77.257813 0c-4.636719-22.796875-24.839844-40.007812-48.984376-40.007812-24.148437 0-44.347656 17.210937-48.984374 40.007812h-64.003907v-35.230469c18.714844-4.546875 32-21.230469 32-40.789062 0-19.710938-13.65625-36.285157-32-40.785157v-20.988281h41.960938c-2.9375 4.726563-4.96875 10.089844-5.820313 15.851563-.804687 5.464844 2.972656 10.542968 8.4375 11.347656s10.546875-2.972656 11.351563-8.433594c1.574219-10.691406 10.929687-18.753906 21.761719-18.753906 12.128906 0 22 9.867188 22 21.996094 0 10.785156-7.703126 19.910156-18.3125 21.691406-5.445313.917969-9.121094 6.074219-8.203126 11.519531.820313 4.886719 5.054688 8.34375 9.847657 8.34375.550781 0 1.109375-.042969 1.671875-.140625 20.277344-3.40625 34.996094-20.824218 34.996094-41.414062 0-8.066406-2.292969-15.605469-6.25-22.007813h102.550781v11.445313c-7.324219-4.925782-15.929688-7.574219-24.945313-7.574219-22.035156 0-40.675781 15.828125-44.320312 37.636719-.910156 5.445312 2.769531 10.597656 8.214844 11.511718 5.445312.910157 10.601562-2.769531 11.511718-8.214843 2.027344-12.128907 12.371094-20.933594 24.59375-20.933594 6.652344 0 12.910156 2.605469 17.617188 7.347656 4.726562 4.753907 7.328125 11.078125 7.328125 17.808594 0 12.390625-9.144531 23.089844-21.273438 24.886719-5.464843.808594-9.234375 5.894531-8.425781 11.355468.734375 4.96875 5.003906 8.535157 9.878906 8.535157.488282 0 .980469-.035157 1.476563-.105469 6.734375-1 12.957031-3.515625 18.34375-7.167969v51.265625h-54.019531zm0 0"/><path d="m434.621094 420.410156c-3.886719 3.917969-3.839844 10.269532.078125 14.160156l.144531.144532c1.933594 1.894531 4.425781 2.832031 6.917969 2.832031 2.597656 0 5.195312-1.019531 7.167969-3.03125 3.863281-3.941406 3.746093-10.328125-.195313-14.195313-3.921875-3.882812-10.226563-3.832031-14.113281.089844zm0 0"/></svg>