<svg height="512pt" viewBox="0 0 512 512.0002" width="512pt" xmlns="http://www.w3.org/2000/svg"><g fill="#b74a00"><path d="m275.164062 106.078125c14.089844-10.769531 21.636719-35.710937 12.109376-58.824219-33.71875-13.890625-92.105469-6.957031-136.726563 50.175782-37.175781 47.605468-35.425781 90.566406-21.109375 118.429687 21.109375 9.65625 42.457031 5.820313 57.261719-10.371094 21.328125-23.328125 7.464843-48.261719 28.347656-70.914062 20.550781-22.289063 37.128906-10.933594 60.117187-28.496094zm0 0"/><path d="m404.277344 275.394531c-43.457032-33.9375-83.042969-35.433593-110.808594-24.550781-6.023438 18.804688-1.417969 37.222656 13.023438 50.425781 23.328124 21.328125 48.265624 7.464844 70.917968 28.347657 22.289063 20.550781 10.933594 37.132812 28.496094 60.117187 9.601562 12.5625 30.457031 19.90625 51.246094 14.609375 9.90625-34.40625.082031-87.589844-52.875-128.949219zm0 0"/><path d="m205.492188 404.132812c-23.328126-21.328124-48.265626-7.464843-70.917969-28.347656-22.289063-20.550781-10.929688-37.132812-28.496094-60.117187-9.558594-12.507813-30.277344-19.847657-50.976563-14.679688-9.773437 34.414063.140626 87.421875 52.953126 128.671875 43.316406 33.824219 82.789062 35.421875 110.539062 24.652344 5.90625-18.71875 1.277344-37.035156-13.101562-50.179688zm0 0"/></g><path d="m152.285156 231.585938c-10.753906 0-21.949218-2.992188-32.847656-9.082032-18.796875-10.503906-33.589844-32.457031-38.601562-57.292968-4.785157-23.726563-3.328126-61.1875 30.800781-104.886719 38.867187-49.773438 83.300781-59.074219 106.324219-60.191407 26.589843-1.28125 50.804687 6.726563 64.777343 21.433594 13.800781 14.527344 20.558594 33.125 19.03125 52.367188-1.324219 16.640625-8.898437 31.761718-20.261719 40.445312-12.339843 9.429688-23.09375 11.769532-32.582031 13.832032-10.023437 2.179687-17.265625 3.753906-26.195312 13.445312-8.222657 8.917969-9.664063 18.457031-11.332031 29.507812-1.9375 12.800782-4.128907 27.308594-16.988282 41.375-11.511718 12.59375-26.34375 19.046876-42.125 19.046876zm71.167969-210.6875c-1.484375 0-2.976563.035156-4.480469.109374-19.453125.941407-57.125 8.972657-90.867187 52.179688-29.238281 37.441406-30.703125 68.460938-26.78125 87.894531 4.589843 22.761719 18.121093 37.484375 28.308593 43.179688 18.246094 10.199219 36.699219 8.019531 49.355469-5.820313 8.570313-9.375 10.042969-19.117187 11.746094-30.398437 1.90625-12.621094 4.070313-26.925781 16.632813-40.550781 13.40625-14.542969 26.003906-17.28125 37.117187-19.699219 8.421875-1.832031 15.691406-3.414063 24.335937-10.015625 6.628907-5.066406 11.269532-14.835938 12.117188-25.5 1.054688-13.25-3.6875-26.148438-13.347656-36.316406-8.980469-9.449219-25.613282-15.0625-44.136719-15.0625zm0 0"/><path d="m145.484375 100.242188c-2.25 0-4.515625-.726563-6.425781-2.214844-4.546875-3.550782-5.355469-10.121094-1.804688-14.667969 26.015625-33.308594 61.507813-52.234375 97.253906-51.914063 5.769532.050782 10.40625 4.769532 10.355469 10.539063s-4.804687 10.425781-10.542969 10.355469c-29.230468-.261719-58.613281 15.738281-80.59375 43.882812-2.0625 2.636719-5.136718 4.019532-8.242187 4.019532zm0 0"/><path d="m129.917969 126.472656c-2.078125 0-4.179688-.621094-6.007813-1.90625-4.71875-3.324218-5.847656-9.84375-2.523437-14.5625l.175781-.246094c3.324219-4.714843 9.839844-5.847656 14.558594-2.523437s5.847656 9.839844 2.523437 14.558594l-.175781.25c-2.03125 2.886719-5.265625 4.429687-8.550781 4.429687zm0 0"/><path d="m443.394531 416.550781c-1.773437 0-3.554687-.070312-5.34375-.210937-16.640625-1.324219-31.761719-8.898438-40.445312-20.261719-9.429688-12.339844-11.769531-23.09375-13.832031-32.582031-2.179688-10.023438-3.753907-17.261719-13.445313-26.195313-8.914063-8.222656-18.457031-9.664062-29.507813-11.332031-12.800781-1.933594-27.308593-4.128906-41.375-16.988281-21.171874-19.355469-24.988281-48.085938-9.964843-74.972657 10.507812-18.796874 32.457031-33.589843 57.292969-38.601562 23.730468-4.785156 61.1875-3.328125 104.890624 30.800781 49.769532 38.867188 59.074219 83.300781 60.1875 106.324219 1.289063 26.589844-6.726562 50.804688-21.433593 64.777344-13.179688 12.519531-29.707031 19.242187-47.023438 19.242187zm-76.410156-202.242187c-5.992187 0-11.375.632812-16.082031 1.582031-22.761719 4.59375-37.484375 18.121094-43.179688 28.3125-10.199218 18.246094-8.019531 36.699219 5.820313 49.355469 9.375 8.570312 19.117187 10.042968 30.398437 11.746094 12.621094 1.90625 26.925782 4.070312 40.550782 16.628906 14.542968 13.410156 17.28125 26.007812 19.699218 37.121094 1.832032 8.421874 3.414063 15.691406 10.015625 24.335937 5.066407 6.625 14.835938 11.269531 25.5 12.117187 13.25 1.054688 26.148438-3.6875 36.316407-13.347656 10.207031-9.695312 15.933593-28.324218 14.953124-48.617187-.941406-19.453125-8.972656-57.125-52.179687-90.867188-28.371094-22.15625-53.0625-28.367187-71.8125-28.367187zm-68.382813 24.796875h.011719zm0 0"/><path d="m470.09375 359.433594c-.03125 0-.0625 0-.09375 0-5.769531-.050782-10.40625-4.769532-10.355469-10.539063.257813-29.238281-15.738281-58.617187-43.882812-80.597656-4.546875-3.550781-5.355469-10.117187-1.804688-14.664063 3.550781-4.550781 10.121094-5.355468 14.667969-1.804687 33.308594 26.011719 52.230469 61.457031 51.914062 97.25-.050781 5.738281-4.71875 10.355469-10.445312 10.355469zm0 0"/><path d="m396.199219 255.121094c-2.078125 0-4.179688-.617188-6.007813-1.90625l-.25-.175782c-4.714844-3.324218-5.84375-9.839843-2.523437-14.558593 3.324219-4.71875 9.84375-5.847657 14.5625-2.523438l.246093.175781c4.71875 3.320313 5.847657 9.839844 2.523438 14.558594-2.035156 2.886719-5.269531 4.429688-8.550781 4.429688zm0 0"/><path d="m144.910156 512c-22.589844 0-51.832031-7.226562-84.585937-32.804688-49.773438-38.871093-59.074219-83.300781-60.191407-106.324218-1.285156-26.589844 6.726563-50.808594 21.433594-64.777344 14.527344-13.800781 33.121094-20.554688 52.367188-19.03125 16.640625 1.324219 31.761718 8.894531 40.445312 20.261719 9.433594 12.339843 11.769532 23.09375 13.832032 32.582031 2.179687 10.023438 3.753906 17.261719 13.445312 26.195312 8.914062 8.222657 18.457031 9.664063 29.507812 11.332032 12.800782 1.933594 27.308594 4.125 41.375 16.988281 21.171876 19.355469 24.992188 48.082031 9.964844 74.972656-10.507812 18.796875-32.460937 33.589844-57.292968 38.597657-5.941407 1.199218-12.75 2.007812-20.300782 2.007812zm-76.257812-202.25c-11.960938 0-23.453125 4.714844-32.691406 13.492188-10.207032 9.695312-15.933594 28.324218-14.953126 48.617187.941407 19.453125 8.972657 57.125 52.175782 90.867187 37.441406 29.238282 68.460937 30.703126 87.894531 26.78125 22.761719-4.59375 37.488281-18.121093 43.183594-28.3125 10.199219-18.246093 8.019531-36.695312-5.820313-49.355468-9.375-8.570313-19.117187-10.039063-30.398437-11.746094-12.621094-1.90625-26.925781-4.066406-40.550781-16.628906-14.542969-13.40625-17.285157-26.003906-19.699219-37.121094-1.832031-8.421875-3.414063-15.691406-10.019531-24.335938-5.0625-6.625-14.832032-11.269531-25.496094-12.117187-1.210938-.09375-2.421875-.140625-3.625-.140625zm144.730468 156.542969h.011719zm0 0"/><path d="m89.785156 455.789062c-2.25 0-4.515625-.722656-6.425781-2.214843-33.308594-26.011719-52.230469-61.457031-51.914063-97.25.050782-5.769531 4.746094-10.417969 10.539063-10.355469 5.773437.050781 10.40625 4.769531 10.355469 10.539062-.257813 29.242188 15.738281 58.617188 43.882812 80.597657 4.546875 3.550781 5.355469 10.117187 1.804688 14.664062-2.058594 2.640625-5.136719 4.019531-8.242188 4.019531zm0 0"/><path d="m116.015625 471.351562c-2.078125 0-4.179687-.621093-6.007813-1.90625l-.25-.175781c-4.714843-3.324219-5.84375-9.839843-2.523437-14.558593 3.324219-4.71875 9.84375-5.847657 14.5625-2.523438l.246094.171875c4.71875 3.324219 5.847656 9.84375 2.523437 14.5625-2.035156 2.886719-5.269531 4.429687-8.550781 4.429687zm0 0"/></svg>