<?xml version="1.0" encoding="iso-8859-1"?>
<!-- Generator: Adobe Illustrator 19.0.0, SVG Export Plug-In . SVG Version: 6.00 Build 0)  -->
<svg version="1.1" id="Capa_1" xmlns="http://www.w3.org/2000/svg" xmlns:xlink="http://www.w3.org/1999/xlink" x="0px" y="0px"
	 viewBox="0 0 512 512" style="enable-background:new 0 0 512 512;" xml:space="preserve">
<path style="fill:#7D9BFF;" d="M144.412,79.309c-23.976,0-43.414,19.437-43.414,43.414v272.274h43.011v72.853
	c0.135,0.001,0.268,0.01,0.403,0.01h6.732l72.863-72.863h237.994c22.09,0,39.999-17.909,39.999-39.999V79.309H144.412z"/>
<g>
	<path style="fill:#FFFFFF;" d="M256.007,273.174c-11.046,0-19.999-8.954-19.999-19.999v-37.999
		c0-11.046,8.954-19.999,19.999-19.999c22.055,0,39.999-17.944,39.999-39.999s-17.944-39.999-39.999-39.999
		s-39.999,17.944-39.999,39.999c0,11.046-8.954,19.999-19.999,19.999c-11.046,0-19.999-8.954-19.999-19.999
		c0-44.111,35.887-79.998,79.998-79.998s79.998,35.887,79.998,79.998c0,37.208-25.533,68.564-59.998,77.467v20.53
		C276.006,264.22,267.052,273.174,256.007,273.174z"/>
	<path style="fill:#FFFFFF;" d="M256.007,356.299c-5.26,0-10.42-2.14-14.141-5.86c-3.729-3.72-5.859-8.88-5.859-14.14
		c0-5.27,2.13-10.42,5.859-14.14c3.721-3.73,8.881-5.86,14.141-5.86c5.26,0,10.42,2.13,14.14,5.86c3.72,3.72,5.86,8.88,5.86,14.14
		c0,5.26-2.141,10.42-5.86,14.14C266.426,354.159,261.266,356.299,256.007,356.299z"/>
</g>
<path d="M58.002,170.332c-2.64,0-5.21-1.06-7.07-2.93c-1.87-1.86-2.93-4.43-2.93-7.07c0-2.63,1.06-5.21,2.93-7.07
	c1.86-1.86,4.43-2.93,7.07-2.93c2.63,0,5.21,1.07,7.07,2.93c1.86,1.86,2.93,4.44,2.93,7.07c0,2.64-1.07,5.21-2.93,7.07
	C63.211,169.272,60.631,170.332,58.002,170.332z"/>
<path d="M462.001,27.005H49.999C22.429,27.005,0,49.435,0,77.004v277.993c0,27.569,22.429,49.999,49.999,49.999h84.011v69.998
	c0,4.044,2.437,7.691,6.173,9.239c1.237,0.513,2.536,0.762,3.824,0.762c2.603,0,5.161-1.017,7.074-2.929l77.069-77.069h59.356
	c5.523,0,10-4.477,10-10c0-5.523-4.477-10-10-10h-63.498c-2.652,0-5.196,1.054-7.071,2.929l-62.927,62.927v-55.857
	c0-5.523-4.477-10-10-10h-94.01c-16.542,0-29.999-13.458-29.999-29.999V77.005c0-15.869,12.388-28.891,27.999-29.925v75.752
	c0,5.523,4.477,10,10,10s10-4.477,10-10V47.005h394.003c16.542,0,29.999,13.458,29.999,29.999v277.993
	c0,16.542-13.458,29.999-29.999,29.999h-82.498c-5.523,0-10,4.477-10,10c0,5.523,4.477,10,10,10h82.498
	c27.569,0,49.999-22.429,49.999-49.999V77.004C512,49.435,489.571,27.005,462.001,27.005z"/>
<path d="M336.004,404.996c-2.63,0-5.21-1.07-7.07-2.93c-1.86-1.86-2.93-4.44-2.93-7.07c0-2.63,1.07-5.21,2.93-7.07
	c1.86-1.86,4.44-2.93,7.07-2.93c2.63,0,5.21,1.07,7.07,2.93c1.86,1.86,2.93,4.44,2.93,7.07c0,2.63-1.07,5.21-2.93,7.07
	C341.214,403.926,338.634,404.996,336.004,404.996z"/>
<path d="M256.007,283.174c-16.542,0-29.999-13.458-29.999-29.999v-37.999c0-16.542,13.458-29.999,29.999-29.999
	s29.999-13.458,29.999-29.999s-13.458-29.999-29.999-29.999s-29.999,13.458-29.999,29.999s-13.458,29.999-29.999,29.999
	s-29.999-13.458-29.999-29.999c0-49.625,40.373-89.998,89.998-89.998s89.998,40.373,89.998,89.998
	c0,38.414-24.306,72.263-59.998,84.862v13.136C286.006,269.716,272.548,283.174,256.007,283.174z M256.007,105.178
	c27.569,0,49.999,22.429,49.999,49.999s-22.429,49.999-49.999,49.999c-5.514,0-10,4.486-10,10v37.999c0,5.514,4.486,10,10,10
	c5.514,0,10-4.486,10-10v-20.53c0-4.56,3.084-8.542,7.499-9.682c30.911-7.984,52.5-35.858,52.5-67.785
	c0-38.597-31.401-69.998-69.998-69.998s-69.998,31.401-69.998,69.998c0,5.514,4.486,10,10,10s10-4.486,10-10
	C206.008,127.607,228.437,105.178,256.007,105.178z"/>
<path d="M256.007,366.299c-7.895,0-15.626-3.204-21.211-8.789c-5.582-5.567-8.788-13.302-8.788-21.21
	c0-7.909,3.207-15.644,8.797-21.219c5.559-5.573,13.293-8.78,21.202-8.78c7.91,0,15.645,3.208,21.22,8.799
	c5.576,5.576,8.779,13.307,8.779,21.2c0,7.894-3.204,15.625-8.789,21.21C271.633,363.095,263.902,366.299,256.007,366.299z
	 M256.007,326.3c-2.596,0-5.235,1.092-7.06,2.922c-1.875,1.87-2.94,4.443-2.94,7.078c0,2.596,1.092,5.235,2.921,7.059
	c1.845,1.845,4.487,2.941,7.079,2.941c2.591,0,5.233-1.096,7.068-2.931c1.836-1.836,2.932-4.479,2.932-7.069
	c0-2.59-1.096-5.233-2.932-7.068C261.241,327.391,258.602,326.3,256.007,326.3z"/>
<g>
</g>
<g>
</g>
<g>
</g>
<g>
</g>
<g>
</g>
<g>
</g>
<g>
</g>
<g>
</g>
<g>
</g>
<g>
</g>
<g>
</g>
<g>
</g>
<g>
</g>
<g>
</g>
<g>
</g>
</svg>
