<svg height="511pt" viewBox="0 -82 511.99975 511" width="511pt" xmlns="http://www.w3.org/2000/svg"><path d="m485.089844 88.722656c-36.726563 13.804688-64.765625 45.359375-73.609375 84.230469l.058593 52.875c3.671876 15.976563 10.601563 30.703125 20.03125 43.472656 19.582032 14.433594 43.78125 22.96875 69.972657 22.96875h.007812c-21.019531-34.390625-33.140625-74.816406-33.140625-118.074219.003906-30.238281 5.933594-59.09375 16.679688-85.472656zm0 0" fill="#0092e0"/><path d="m29.457031 204.714844c25.207031 34.800781 74.960938 87.183594 146.136719 87.183594 82.289062 0 162.039062-52.375 205.980469-87.207032-43.941407-34.8125-123.691407-87.160156-205.980469-87.160156-71.175781 0-120.929688 52.382812-146.136719 87.183594zm0 0" fill="#64c5f2"/><g fill="#0092e0"><path d="m135.601562 174.308594c0-17.453125-2.253906-34.371094-6.441406-50.515625-60.816406 23.179687-101.097656 75.6875-101.097656 75.6875l-.027344.132812s.558594 2.007813 1.738282 5.539063c16.328124 22.457031 42.792968 52.050781 78.558593 70.222656 17.332031-29.6875 27.269531-64.214844 27.269531-101.066406zm0 0"/><path d="m175.59375 291.898438c-18.960938 0-36.390625-3.730469-52.253906-9.84375h-.238282s35.269532 53.695312 123.09375 55.746093c0-35.945312 0-55.980469 0-55.980469l-5.238281.007813c-21.171875 6.25-43.171875 10.070313-65.363281 10.070313zm0 0"/><path d="m175.59375 56.847656c22.1875 0 44.1875 3.820313 65.355469 10.0625l5.246093.011719s0-20.027344 0-55.972656c-87.824218 2.050781-123.09375 55.746093-123.09375 55.746093h.234376c15.863281-6.113281 33.296874-9.847656 52.257812-9.847656zm0 0"/></g><path d="m129.46875 232.601562c-.875 0-1.761719-.109374-2.648438-.339843-5.582031-1.457031-8.925781-7.164063-7.46875-12.75l.109376-.410157c1.453124-5.582031 7.160156-8.929687 12.742187-7.476562 5.585937 1.453125 8.933594 7.160156 7.476563 12.746094l-.105469.421875c-1.230469 4.699219-5.464844 7.808593-10.105469 7.808593zm0 0"/><path d="m88.558594 186.273438c-6.515625 0-11.820313-5.34375-11.820313-11.914063s5.304688-11.917969 11.820313-11.917969c6.519531 0 11.820312 5.347656 11.820312 11.917969s-5.300781 11.914063-11.820312 11.914063zm0 0"/><path d="m510.464844 286.820312c-20.675782-33.828124-31.605469-72.773437-31.605469-112.625 0-39.847656 10.929687-78.792968 31.605469-112.621093 1.972656-3.226563 2.046875-7.265625.199218-10.558594-1.851562-3.296875-5.335937-5.339844-9.117187-5.339844-29.296875 0-57.960937 10.121094-80.710937 28.496094-18.203126 14.707031-32.074219 34.195313-40.046876 55.96875-9.636718-7.375-20.640624-15.3125-32.800781-23.28125-24.355469-15.96875-56.089843-33.695313-91.34375-45.804687v-50.105469c0-2.8125-1.132812-5.507813-3.144531-7.472657-2.015625-1.96875-4.726562-3.042968-7.546875-2.972656-82.050781 1.917969-121 46.367188-129.710937 57.847656-25.039063 10.28125-48.917969 27.09375-70.753907 50.019532-28.71875 30.15625-43.765625 60.015625-44.390625 61.273437-.722656 1.449219-1.097656 3.042969-1.097656 4.664063v.132812c0 1.617188.375 3.214844 1.097656 4.664063.628906 1.253906 15.675782 31.117187 44.390625 61.269531 21.835938 22.929688 45.714844 39.742188 70.753907 50.023438 8.703124 11.472656 47.65625 55.933593 129.710937 57.851562h.242187c2.726563 0 5.347657-1.066406 7.304688-2.972656 2.011719-1.96875 3.144531-4.660156 3.144531-7.476563v-50.113281c35.253907-12.117188 66.988281-29.855469 91.347657-45.828125 12.191406-8 23.230468-15.964844 32.886718-23.363281 8.003906 21.714844 21.878906 41.152344 40.0625 55.808594 22.730469 18.320312 51.355469 28.410156 80.609375 28.410156 3.78125 0 7.265625-2.039063 9.113281-5.335938 1.847657-3.296875 1.773438-7.335937-.199218-10.558594zm-274.71875-264.894531v32.757813c-19.453125-5.140625-39.695313-8.28125-60.152344-8.28125-5.589844 0-11.15625.316406-16.695312.933594 16.777343-11.304688 41.894531-22.726563 76.847656-25.410157zm0 304.90625c-29.292969-2.222656-55.097656-10.753906-76.828125-25.414062 5.53125.613281 11.09375.929687 16.675781.929687 20.457031 0 40.699219-3.140625 60.152344-8.289062zm-60.152344-45.382812c-18.644531 0-36.765625-3.832031-54.273438-11.421875 1.398438-2.5 2.753907-5.023438 4.035157-7.574219 2.589843-5.15625.511719-11.4375-4.644531-14.027344-5.160157-2.589843-11.4375-.507812-14.027344 4.648438-1.027344 2.039062-2.65625 5.015625-3.953125 7.335937-14.386719-8.683594-28.316407-20.03125-41.714844-34.035156-20.335937-21.253906-33.527344-42.8125-38.71875-51.996094 8.144531-14.386718 36.003906-59.152344 80.71875-86.035156 14.207031 25.65625 22.136719 55.878906 22.136719 85.964844 0 2.703125-.0625 5.441406-.183594 8.140625-.257812 5.765625 4.203125 10.648437 9.96875 10.910156 5.765625.269531 10.648438-4.203125 10.910156-9.96875.132813-3.011719.203125-6.066406.203125-9.082031 0-33.871094-8.476562-66.640625-24.59375-95.496094 16.269531-7.082031 34.347657-11.511719 54.136719-11.511719 60.960938 0 120.96875 30.886719 160.574219 56.796875 30.25 19.792969 53.558593 39.796875 65.042969 50.242188-27.90625 25.335937-125.742188 107.109375-225.617188 107.109375zm222.695312-76.84375c15.667969-13.03125 24.894532-22.191407 25.570313-22.871094 1.960937-1.960937 3.0625-4.617187 3.0625-7.390625s-1.101563-5.429688-3.0625-7.390625c-.679687-.675781-9.933594-9.859375-25.644531-22.917969 11.542968-39.910156 44.488281-68.96875 84.730468-75.882812-16.394531 32.777344-24.984374 69.058594-24.984374 106.046875 0 36.984375 8.589843 73.265625 24.984374 106.039062-40.136718-6.902343-73.046874-35.859375-84.65625-75.632812zm0 0"/><path d="m205.441406 151.558594c3.835938-4.773438 6.136719-10.828125 6.136719-17.414063 0-15.367187-12.5-27.867187-27.863281-27.867187-5.769532 0-10.449219 4.679687-10.449219 10.449218 0 5.773438 4.679687 10.449219 10.449219 10.449219 3.839844 0 6.964844 3.125 6.964844 6.96875 0 3.839844-3.125 6.964844-6.964844 6.964844-5.769532 0-10.449219 4.675781-10.449219 10.449219 0 5.769531 4.679687 10.449218 10.449219 10.449218 3.839844 0 6.964844 3.125 6.964844 6.964844s-3.125 6.964844-6.964844 6.964844c-5.769532 0-10.449219 4.679688-10.449219 10.449219 0 5.773437 4.679687 10.449219 10.449219 10.449219 3.839844 0 6.964844 3.125 6.964844 6.96875 0 3.839843-3.125 6.964843-6.964844 6.964843-5.769532 0-10.449219 4.679688-10.449219 10.449219s4.679687 10.449219 10.449219 10.449219c15.363281 0 27.863281-12.5 27.863281-27.863281 0-6.585938-2.300781-12.640626-6.136719-17.417969 3.835938-4.773438 6.136719-10.828125 6.136719-17.414063 0-6.585937-2.300781-12.640625-6.136719-17.414062zm0 0"/><path d="m302.480469 179.421875c-5.769531 0-10.449219-4.679687-10.449219-10.449219 0-5.773437 4.679688-10.449218 10.449219-10.449218 3.839843 0 6.964843-3.125 6.964843-6.964844 0-3.84375-3.125-6.96875-6.964843-6.96875-5.769531 0-10.449219-4.675782-10.449219-10.449219 0-5.769531 4.679688-10.449219 10.449219-10.449219 15.363281 0 27.863281 12.5 27.863281 27.867188 0 15.363281-12.5 27.863281-27.863281 27.863281zm0 0"/><path d="m275.578125 193.238281c0-15.363281-12.5-27.863281-27.863281-27.863281-5.769532 0-10.449219 4.679688-10.449219 10.449219 0 5.773437 4.679687 10.449219 10.449219 10.449219 3.839844 0 6.964844 3.125 6.964844 6.96875 0 3.839843-3.125 6.964843-6.964844 6.964843-5.769532 0-10.449219 4.675781-10.449219 10.449219 0 5.769531 4.679687 10.449219 10.449219 10.449219 3.839844 0 6.964844 3.125 6.964844 6.964843 0 3.839844-3.125 6.964844-6.964844 6.964844-5.769532 0-10.449219 4.679688-10.449219 10.449219 0 5.773437 4.679687 10.449219 10.449219 10.449219 15.363281 0 27.863281-12.496094 27.863281-27.863282 0-6.585937-2.300781-12.640624-6.136719-17.414062 3.835938-4.777344 6.136719-10.832031 6.136719-17.417969zm0 0"/></svg>