<svg height="512pt" viewBox="0 0 512 512.00144" width="512pt" xmlns="http://www.w3.org/2000/svg"><path d="m260.402344 246.792969c-87.289063 113.980469-177.589844 162.75-207.113282 176.558593 40.230469 16.089844 106.96875 18.734376 191.121094-66.460937l206.320313-237.546875c-46.617188 4.992188-116.769531 31.394531-190.328125 127.449219zm0 0" fill="#3e9c06"/><path d="m323.480469 306.222656c43.554687-96.371094 100.890625-143.171875 144.792969-165.859375 12.117187-24.003906 22.605468-41.402343 33.199218-54.191406 0 0-129.546875 6.964844-210.953125 187.089844-67.238281 148.761719-168.285156 214.085937-168.285156 214.085937s23.136719 12.433594 57.59375 13.996094c34.175781-28.957031 97.035156-91.980469 143.652344-195.121094zm0 0" fill="#fff"/><path d="m384.039062 329.3125c38.4375-88.542969 63.683594-148.25 84.234376-188.949219-43.902344 22.6875-101.238282 69.488281-144.792969 165.859375-46.617188 103.140625-109.476563 166.160156-143.652344 195.121094 55.203125 2.507812 139.464844-22.890625 204.210937-172.03125zm0 0" fill="#3e9c06"/><g fill="#97cd44"><path d="m194.710938 111.785156c-16.597657 6.601563-28.335938 22.796875-28.335938 41.75 0 18.949219 11.738281 35.148438 28.335938 41.746094 16.601562-6.597656 28.339843-22.796875 28.339843-41.746094 0-18.953125-11.738281-35.148437-28.339843-41.75zm0 0"/><path d="m116.878906 13.613281c-16.597656 6.601563-28.335937 22.800781-28.335937 41.75s11.738281 35.148438 28.335937 41.75c16.601563-6.601562 28.339844-22.800781 28.339844-41.75s-11.738281-35.148437-28.339844-41.75zm0 0"/><path d="m71.957031 201.058594c-16.597656 6.601562-28.339843 22.796875-28.339843 41.746094 0 18.953124 11.742187 35.148437 28.339843 41.75 16.597657-6.601563 28.339844-22.796876 28.339844-41.75 0-18.949219-11.742187-35.144532-28.339844-41.746094zm0 0"/></g><path d="m100.296875 110.734375c-14.792969 0-28.699219-5.761719-39.15625-16.21875s-16.214844-24.363281-16.214844-39.152344c0-14.789062 5.757813-28.695312 16.214844-39.152343 12.367187-12.367188 30.089844-18.199219 47.398437-15.605469 5.707032.855469 9.640626 6.175781 8.785157 11.878906-.855469 5.707031-6.171875 9.640625-11.882813 8.785156-10.953125-1.644531-21.710937 1.898438-29.523437 9.714844-6.511719 6.511719-10.097657 15.167969-10.097657 24.378906 0 9.207031 3.585938 17.863281 10.097657 24.375s15.167969 10.101563 24.378906 10.101563c9.207031 0 17.863281-3.589844 24.375-10.097656 7.628906-7.628907 11.203125-18.144532 9.808594-28.855469-.742188-5.722657 3.292969-10.964844 9.015625-11.707031 5.722656-.746094 10.960937 3.289062 11.707031 9.011718 2.234375 17.191406-3.507813 34.078125-15.753906 46.324219-10.457031 10.457031-24.363281 16.21875-39.152344 16.21875zm0 0"/><path d="m132.152344 34.132812c-2.664063 0-5.332032-1.011718-7.367188-3.039062l-.089844-.089844c-4.09375-4.066406-4.113281-10.683594-.042968-14.773437 4.070312-4.089844 10.683594-4.109375 14.773437-.042969l.089844.089844c4.09375 4.070312 4.113281 10.683594.042969 14.777344-2.039063 2.050781-4.722656 3.078124-7.40625 3.078124zm0 0"/><path d="m55.25 298.1875c-14.601562 0-28.523438-5.71875-39.03125-16.226562-10.457031-10.457032-16.21875-24.363282-16.21875-39.15625 0-14.789063 5.761719-28.691407 16.21875-39.152344 10.457031-10.457032 24.363281-16.214844 39.152344-16.214844 14.792968 0 28.695312 5.757812 39.152344 16.214844 12.367187 12.367187 18.199218 30.085937 15.605468 47.398437-.855468 5.707031-6.160156 9.640625-11.878906 8.785157-5.707031-.855469-9.640625-6.175782-8.785156-11.882813 1.640625-10.949219-1.898438-21.710937-9.714844-29.527344-6.511719-6.511719-15.167969-10.097656-24.378906-10.097656-9.207032 0-17.867188 3.585937-24.375 10.097656-6.511719 6.511719-10.101563 15.171875-10.101563 24.378907 0 9.210937 3.589844 17.867187 10.101563 24.378906 7.625 7.625 18.140625 11.203125 28.851562 9.808594 5.730469-.746094 10.964844 3.289062 11.707032 9.011718.746093 5.722656-3.292969 10.964844-9.011719 11.707032-2.441407.320312-4.875.476562-7.292969.476562zm0 0"/><path d="m87.046875 285.109375c-2.683594 0-5.367187-1.027344-7.40625-3.082031-4.070313-4.089844-4.050781-10.703125.039063-14.773438l.09375-.089844c4.089843-4.066406 10.707031-4.050781 14.773437.042969 4.070313 4.089844 4.050781 10.707031-.042969 14.773438l-.089844.089843c-2.039062 2.027344-4.703124 3.039063-7.367187 3.039063zm0 0"/><path d="m287.1875 445.007812c-.566406 0-1.140625-.046874-1.71875-.140624-26.515625-4.382813-44.523438-29.523438-40.140625-56.042969.9375-5.691407 6.3125-9.542969 12.007813-8.601563 5.695312.9375 9.546874 6.316406 8.605468 12.007813-2.503906 15.152343 7.785156 29.515625 22.9375 32.019531 5.691406.941406 9.542969 6.320312 8.601563 12.011719-.84375 5.117187-5.273438 8.746093-10.292969 8.746093zm0 0"/><path d="m200.035156 373.394531c-.566406 0-1.140625-.046875-1.71875-.140625-26.515625-4.382812-44.523437-29.523437-40.144531-56.039062.941406-5.691406 6.304687-9.546875 12.011719-8.605469 5.691406.941406 9.546875 6.316406 8.605468 12.011719-2.503906 15.148437 7.785157 29.511718 22.933594 32.015625 5.691406.941406 9.546875 6.320312 8.605469 12.011719-.84375 5.113281-5.273437 8.746093-10.292969 8.746093zm0 0"/><path d="m258.484375 298.179688c-.566406 0-1.140625-.046876-1.71875-.140626-10.878906-1.796874-20.40625-7.726562-26.832031-16.691406-6.417969-8.964844-8.96875-19.894531-7.167969-30.777344.941406-5.691406 6.324219-9.539062 12.011719-8.601562 5.691406.941406 9.542968 6.320312 8.601562 12.011719-.886718 5.375.371094 10.773437 3.542969 15.199219 3.171875 4.425781 7.878906 7.355468 13.253906 8.242187 5.691407.941406 9.542969 6.320313 8.601563 12.011719-.84375 5.117187-5.273438 8.746094-10.292969 8.746094zm0 0"/><path d="m334.171875 363.628906c-.566406 0-1.140625-.042968-1.714844-.140625-26.519531-4.382812-44.527343-29.519531-40.144531-56.039062.9375-5.691407 6.304688-9.546875 12.011719-8.605469 5.691406.941406 9.542969 6.320312 8.601562 12.011719-2.503906 15.152343 7.785157 29.515625 22.9375 32.019531 5.691407.941406 9.542969 6.316406 8.601563 12.011719-.84375 5.113281-5.273438 8.742187-10.292969 8.742187zm0 0"/><path d="m379.488281 280.453125c-.566406 0-1.140625-.046875-1.71875-.140625-26.515625-4.382812-44.523437-29.523438-40.144531-56.042969.941406-5.691406 6.3125-9.546875 12.011719-8.601562 5.691406.9375 9.546875 6.316406 8.605469 12.007812-2.503907 15.152344 7.785156 29.515625 22.933593 32.019531 5.691407.941407 9.546875 6.320313 8.605469 12.011719-.84375 5.117188-5.273438 8.746094-10.292969 8.746094zm0 0"/><path d="m178.128906 208.90625c-14.792968 0-28.695312-5.761719-39.15625-16.21875-12.363281-12.367188-18.199218-30.085938-15.601562-47.398438.855468-5.707031 6.183594-9.636718 11.878906-8.78125 5.707031.855469 9.640625 6.171876 8.785156 11.878907-1.644531 10.949219 1.898438 21.710937 9.714844 29.527343 6.507812 6.511719 15.167969 10.097657 24.375 10.097657 9.210938 0 17.867188-3.585938 24.378906-10.097657 6.511719-6.511718 10.097656-15.167968 10.097656-24.378906 0-9.207031-3.585937-17.867187-10.097656-24.378906-7.625-7.625-18.140625-11.199219-28.851562-9.808594-5.726563.75-10.964844-3.289062-11.707032-9.011718-.746093-5.722657 3.289063-10.964844 9.011719-11.707032 17.191407-2.234375 34.078125 3.507813 46.324219 15.753906 10.457031 10.457032 16.214844 24.363282 16.214844 39.152344 0 14.789063-5.757813 28.695313-16.214844 39.152344s-24.363281 16.21875-39.152344 16.21875zm0 0"/><path d="m146.363281 132.214844c-2.683593 0-5.367187-1.027344-7.410156-3.082032-4.070313-4.089843-4.050781-10.703124.042969-14.773437l.089844-.089844c4.089843-4.066406 10.707031-4.050781 14.773437.042969 4.070313 4.089844 4.050781 10.707031-.039063 14.773438l-.09375.089843c-2.035156 2.027344-4.699218 3.039063-7.363281 3.039063zm0 0"/><path d="m287.1875 445.007812c-.566406 0-1.140625-.046874-1.71875-.140624-26.515625-4.382813-44.523438-29.523438-40.140625-56.042969.9375-5.691407 6.3125-9.542969 12.007813-8.601563 5.695312.9375 9.546874 6.316406 8.605468 12.007813-2.503906 15.152343 7.785156 29.515625 22.9375 32.019531 5.691406.941406 9.542969 6.320312 8.601563 12.011719-.84375 5.117187-5.273438 8.746093-10.292969 8.746093zm0 0"/><path d="m200.035156 373.394531c-.566406 0-1.140625-.046875-1.71875-.140625-26.515625-4.382812-44.523437-29.523437-40.144531-56.039062.941406-5.691406 6.304687-9.546875 12.011719-8.605469 5.691406.941406 9.546875 6.316406 8.605468 12.011719-2.503906 15.148437 7.785157 29.511718 22.933594 32.015625 5.691406.941406 9.546875 6.320312 8.605469 12.011719-.84375 5.113281-5.273437 8.746093-10.292969 8.746093zm0 0"/><path d="m258.484375 298.179688c-.566406 0-1.140625-.046876-1.71875-.140626-10.878906-1.796874-20.40625-7.726562-26.832031-16.691406-6.417969-8.964844-8.96875-19.894531-7.167969-30.777344.941406-5.691406 6.324219-9.539062 12.011719-8.601562 5.691406.941406 9.542968 6.320312 8.601562 12.011719-.886718 5.375.371094 10.773437 3.542969 15.199219 3.171875 4.425781 7.878906 7.355468 13.253906 8.242187 5.691407.941406 9.542969 6.320313 8.601563 12.011719-.84375 5.117187-5.273438 8.746094-10.292969 8.746094zm0 0"/><path d="m334.171875 363.628906c-.566406 0-1.140625-.042968-1.714844-.140625-26.519531-4.382812-44.527343-29.519531-40.144531-56.039062.9375-5.691407 6.304688-9.546875 12.011719-8.605469 5.691406.941406 9.542969 6.320312 8.601562 12.011719-2.503906 15.152343 7.785157 29.515625 22.9375 32.019531 5.691407.941406 9.542969 6.316406 8.601563 12.011719-.84375 5.113281-5.273438 8.742187-10.292969 8.742187zm0 0"/><path d="m379.488281 280.453125c-.566406 0-1.140625-.046875-1.71875-.140625-26.515625-4.382812-44.523437-29.523438-40.144531-56.042969.941406-5.691406 6.3125-9.546875 12.011719-8.601562 5.691406.9375 9.546875 6.316406 8.605469 12.007812-2.503907 15.152344 7.785156 29.515625 22.933593 32.019531 5.691407.941407 9.546875 6.320313 8.605469 12.011719-.84375 5.117188-5.273438 8.746094-10.292969 8.746094zm0 0"/><path d="m510.804688 81.476562c-1.867188-3.707031-5.722657-5.953124-9.894532-5.734374-.742187.039062-10.390625.636718-25.730468 4.789062-3.523438-1.042969-9.589844-2.574219-17.824219-3.679688-.378907-.214843-.765625-.414062-1.179688-.585937-5.371093-2.21875-9.988281-5.46875-13.71875-9.652344-10.496093-11.785156-9.453125-29.910156 2.328125-40.40625 8.566406-7.632812 21.742188-6.875 29.375 1.691407 2.585938 2.902343 3.890625 6.636718 3.664063 10.519531-.222657 3.878906-1.945313 7.441406-4.847657 10.03125-4.308593 3.835937-4.6875 10.441406-.847656 14.75 3.835938 4.304687 10.441406 4.6875 14.75.847656 7.066406-6.300781 11.261719-14.972656 11.804688-24.425781.546875-9.457032-2.625-18.554688-8.925782-25.625-15.296874-17.164063-41.707031-18.6875-58.875-3.390625-18.917968 16.859375-21.820312 45.082031-7.617187 65.347656-7.90625.582031-16.503906 1.726563-25.710937 3.6875-27.804688 5.914063-55.558594 17.988281-82.484376 35.882813-33.246093 22.09375-65.351562 53.203124-95.414062 92.460937-53.824219 70.28125-108.730469 114.796875-145.3125 139.761719-39.667969 27.074218-66.957031 37.652344-67.21875 37.75-3.203125 1.21875-5.605469 3.929687-6.429688 7.253906-.824218 3.328125.035157 6.84375 2.300782 9.417969 1.390625 1.582031 34.808594 38.800781 92.523437 40.453125 1.335938.039062 2.667969.058594 4.007813.058594 27.550781 0 55.582031-8.132813 83.867187-24.253907-3.183593 3.496094-6.269531 6.789063-9.222656 9.863281-32.542969 33.867188-57.371094 50.132813-57.609375 50.289063-3.101562 2.003906-4.914062 5.5-4.765625 9.191406.148437 3.695313 2.238281 7.03125 5.492187 8.78125 1.613282.867188 29.382813 15.449219 69.496094 15.449219 16.363282 0 34.785156-2.425781 54.316406-9.203125 61.730469-21.425781 113.046876-78.390625 152.523438-169.324219 6.484375-14.933594 12.589844-29.042968 18.363281-42.386718 48.574219-112.238282 72.953125-168.578126 97.53125-198.25 2.644531-3.195313 3.148438-7.65625 1.285157-11.359376zm-414.300782 340.269532c-30.960937-.785156-53.960937-14.007813-66.640625-23.578125 12.457031-6.082031 31.8125-16.535157 55.535157-32.671875 38.035156-25.867188 95.078124-71.988282 150.84375-144.804688 63.980468-83.542968 124.601562-111.527344 164.191406-120.296875 12.515625-2.769531 23.765625-3.839843 33.433594-3.980469-4.0625 2.023438-8.242188 4.242188-12.515626 6.679688-25.671874 14.628906-49.648437 34.117188-71.261718 57.921875-26.828125 29.542969-50.074219 65.859375-69.09375 107.941406-13.964844 30.894531-29.429688 58.03125-44.886719 81.457031-48.136719 48.453126-95.128906 72.453126-139.605469 71.332032zm296.304688-138.957032c-5.769532 13.332032-11.871094 27.4375-18.351563 42.363282-36.964843 85.144531-84.007812 138.226562-139.820312 157.769531-38.085938 13.335937-71.84375 7.433594-90.949219 1.589844 10.925781-8.644531 26.738281-22.230469 44.996094-41.171875 18.21875-18.898438 40.988281-45.496094 63.8125-79.84375.433594-.527344.804687-1.089844 1.117187-1.671875 16.003907-24.261719 31.992188-52.335938 46.425781-84.261719 40.59375-89.824219 93.386719-134.230469 130.523438-155.664062 18.335938-10.582032 34.773438-16.773438 47.253906-20.375-21.554687 34.648437-45.347656 89.621093-85.007812 181.265624zm0 0"/></svg>